<svg width="305" height="305" viewBox="0 0 305 305" fill="none" xmlns="http://www.w3.org/2000/svg">
<g clip-path="url(#clip0_3505_227)">
<rect width="305" height="305" fill="#111720"/>
<path d="M199.395 198.306V163.449M199.395 198.306H234.383C235.445 198.306 236.463 198.728 237.213 199.48L255.049 217.347C258.194 220.498 255.962 225.879 251.51 225.879H175.871C173.661 225.879 171.871 224.102 171.871 221.893C171.871 211.096 171.871 179.599 171.871 142.639M199.395 198.306L173.693 223.89M171.871 142.639L199.395 163.449M171.871 142.639V112.372C171.871 112.085 171.994 111.811 172.209 111.622L197.734 89.1065C198.379 88.5369 199.395 88.9954 199.395 89.8564V163.449" stroke="#4160DD" stroke-opacity="0.6" stroke-width="10"/>
<path d="M81.5067 111.424L52.9434 131.591M81.5067 111.424V191.44M81.5067 111.424V80.6373M81.5067 111.424L126.027 151.184C126.404 151.521 126.974 151.523 127.354 151.188L199.395 87.6408V82.6477C199.395 80.4386 197.604 78.6477 195.395 78.6477H173.413C172.42 78.6477 171.463 79.0167 170.727 79.6831L127.36 118.965C126.979 119.31 126.398 119.31 126.017 118.965L82.6497 79.6831C81.9141 79.0167 80.957 78.6477 79.9644 78.6477H56.9434C54.7342 78.6477 52.9434 80.4386 52.9434 82.6477V131.591M52.9434 131.591V170.723M52.9434 170.723V220.839C52.9434 223.048 54.7342 224.839 56.9434 224.839H77.5067C79.7158 224.839 81.5067 223.048 81.5067 220.839V191.44M52.9434 170.723L81.5067 191.44" stroke="#4160DD" stroke-width="10"/>
</g>
<defs>
<clipPath id="clip0_3505_227">
<rect width="305" height="305" rx="34" fill="white"/>
</clipPath>
</defs>
</svg>
